%
M48
M72
T01C0.0150
T02C0.0400
T03C0.0472
%
T01
X4760Y4206
X5572Y5956
X5010Y6956
X4010Y8768
X4822Y10393
X4385Y10456
X6760Y12518
X7260Y12643
X8197Y10393
X7510Y9893
X7322Y9081
X7635Y8768
X7010Y8393
X6510Y6331
X7010Y6018
X6635Y5018
X6197Y5018
X8260Y4206
X8385Y6893
X9135Y7643
X8760Y9081
T02
X8710Y11893
X8810Y12893
X8710Y13893
X4310Y12893
X4210Y11893
X4210Y13893
T03
X4377Y16643
X5895Y16643
X7133Y16643
X8651Y16643
M30
